<?xml version="1.0" encoding="UTF-8" standalone="no"?>
<!-- Created with Inkscape (http://www.inkscape.org/) -->

<svg
   width="322.99847mm"
   height="85.633003mm"
   viewBox="0 0 322.99847 85.633003"
   version="1.1"
   id="svg1"
   xml:space="preserve"
   xmlns:inkscape="http://www.inkscape.org/namespaces/inkscape"
   xmlns:sodipodi="http://sodipodi.sourceforge.net/DTD/sodipodi-0.dtd"
   xmlns="http://www.w3.org/2000/svg"
   xmlns:svg="http://www.w3.org/2000/svg"><sodipodi:namedview
     id="namedview1"
     pagecolor="#ffffff"
     bordercolor="#666666"
     borderopacity="1.0"
     inkscape:showpageshadow="2"
     inkscape:pageopacity="0.0"
     inkscape:pagecheckerboard="0"
     inkscape:deskcolor="#d1d1d1"
     inkscape:document-units="mm" /><defs
     id="defs1" /><g
     inkscape:label="Layer 1"
     inkscape:groupmode="layer"
     id="layer1"
     transform="translate(10.422022,-226.21235)"><g
       transform="matrix(0.95373495,0,0,0.95373495,883.13043,205.44095)"
       id="g7"><path
         clip-path="none"
         d="m -828.604,39.734 c -0.697,0 -1.289,0.506 -1.398,1.195 l -8.068,51.165 a 1.31,1.31 0 0 0 1.294,1.513 h 9.568 c 0.696,0 1.289,-0.507 1.398,-1.195 l 2.37,-15.025 c 0.108,-0.688 0.701,-1.195 1.398,-1.195 h 8.699 c 10.164,0 18.792,-7.416 20.368,-17.465 1.589,-10.134 -6.328,-18.971 -17.549,-18.993 z m 9.301,11.422 h 6.96 c 5.73,0 7.596,3.381 7.006,7.12 -0.59,3.747 -3.488,6.507 -9.031,6.507 h -7.084 z m 45.788,3.478 c -2.416,0.009 -5.196,0.504 -8.317,1.804 -7.159,2.984 -10.597,9.151 -12.057,13.647 0,0 -4.647,13.717 5.852,21.253 0,0 9.737,7.255 20.698,-0.447 l -0.189,1.203 a 1.31,1.31 0 0 0 1.292,1.513 h 9.083 c 0.697,0 1.289,-0.507 1.398,-1.195 l 5.525,-35.038 a 1.31,1.31 0 0 0 -1.292,-1.515 h -9.083 c -0.697,0 -1.29,0.507 -1.398,1.195 l -0.297,1.886 c 0,0 -3.967,-4.333 -11.216,-4.306 z m 0.297,11.067 c 1.043,0 1.997,0.144 2.853,0.419 3.919,1.258 6.141,5.023 5.498,9.104 -0.793,5.025 -4.914,8.725 -10.199,8.725 -1.042,0 -1.996,-0.143 -2.853,-0.418 -3.918,-1.258 -6.154,-5.023 -5.511,-9.104 0.793,-5.025 4.927,-8.727 10.212,-8.727 z"
         fill="#003087"
         id="path1" /><path
         clip-path="none"
         d="m -697.804,39.734 c -0.697,0 -1.289,0.506 -1.398,1.195 l -8.068,51.165 a 1.31,1.31 0 0 0 1.294,1.513 h 9.568 c 0.696,0 1.289,-0.507 1.398,-1.195 l 2.37,-15.025 c 0.108,-0.688 0.701,-1.195 1.398,-1.195 h 8.699 c 10.164,0 18.791,-7.416 20.366,-17.465 1.59,-10.134 -6.326,-18.971 -17.547,-18.993 z m 9.301,11.422 h 6.96 c 5.73,0 7.596,3.381 7.006,7.12 -0.59,3.747 -3.487,6.507 -9.031,6.507 h -7.084 z m 45.787,3.478 c -2.416,0.009 -5.196,0.504 -8.317,1.804 -7.159,2.984 -10.597,9.151 -12.057,13.647 0,0 -4.645,13.717 5.854,21.253 0,0 9.735,7.255 20.697,-0.447 l -0.189,1.203 a 1.31,1.31 0 0 0 1.294,1.513 h 9.082 c 0.697,0 1.289,-0.507 1.398,-1.195 l 5.527,-35.038 a 1.31,1.31 0 0 0 -1.294,-1.515 h -9.083 c -0.697,0 -1.29,0.507 -1.398,1.195 l -0.297,1.886 c 0,0 -3.967,-4.333 -11.216,-4.306 z m 0.297,11.067 c 1.043,0 1.997,0.144 2.853,0.419 3.919,1.258 6.141,5.023 5.498,9.104 -0.793,5.025 -4.914,8.725 -10.199,8.725 -1.042,0 -1.996,-0.143 -2.853,-0.418 -3.918,-1.258 -6.154,-5.023 -5.511,-9.104 0.793,-5.025 4.927,-8.727 10.212,-8.727 z"
         fill="#0070e0"
         id="path2" /><path
         clip-path="none"
         d="m -745.92,55.859 c -0.72,0 -1.232,0.703 -1.012,1.388 l 9.958,30.901 -9.004,14.562 c -0.437,0.707 0.071,1.62 0.902,1.62 h 10.642 a 1.77,1.77 0 0 0 1.513,-0.854 l 27.811,-46.007 c 0.427,-0.707 -0.083,-1.611 -0.909,-1.611 h -10.641 a 1.77,1.77 0 0 0 -1.522,0.869 l -10.947,18.482 -5.557,-18.345 c -0.181,-0.597 -0.732,-1.006 -1.355,-1.006 z"
         fill="#003087"
         id="path3" /><path
         clip-path="none"
         d="m -609.107,39.734 c -0.696,0 -1.289,0.507 -1.398,1.195 l -8.07,51.163 a 1.31,1.31 0 0 0 1.294,1.515 h 9.568 c 0.696,0 1.289,-0.507 1.398,-1.195 l 8.068,-51.165 a 1.31,1.31 0 0 0 -1.292,-1.513 z"
         fill="#0070e0"
         id="path4" /><path
         clip-path="none"
         d="m -908.37,39.734 a 2.59,2.59 0 0 0 -2.556,2.185 l -4.247,26.936 c 0.198,-1.258 1.282,-2.185 2.556,-2.185 h 12.445 c 12.525,0 23.153,-9.137 25.095,-21.519 a 20.76,20.76 0 0 0 0.245,-2.793 c -3.183,-1.669 -6.922,-2.624 -11.019,-2.624 z"
         fill="#001c64"
         id="path5" /><path
         clip-path="none"
         d="m -874.832,42.359 a 20.76,20.76 0 0 1 -0.245,2.793 c -1.942,12.382 -12.571,21.519 -25.095,21.519 h -12.445 c -1.273,0 -2.358,0.926 -2.556,2.185 l -3.905,24.752 -2.446,15.528 a 2.1,2.1 0 0 0 2.075,2.43 h 13.508 a 2.59,2.59 0 0 0 2.556,-2.185 l 3.558,-22.567 a 2.59,2.59 0 0 1 2.558,-2.185 h 7.953 c 12.525,0 23.153,-9.137 25.095,-21.519 1.379,-8.788 -3.047,-16.784 -10.611,-20.75 z"
         fill="#0070e0"
         id="path6" /><path
         clip-path="none"
         d="m -923.716,21.779 c -1.273,0 -2.358,0.926 -2.556,2.183 l -10.6,67.216 c -0.201,1.276 0.785,2.43 2.077,2.43 h 15.719 l 3.903,-24.752 4.247,-26.936 a 2.59,2.59 0 0 1 2.556,-2.185 h 22.519 c 4.098,0 7.836,0.956 11.019,2.624 0.218,-11.273 -9.084,-20.58 -21.873,-20.58 z"
         fill="#003087"
         id="path7" /></g></g><style
     type="text/css"
     id="style1">
	.st0{fill-rule:evenodd;clip-rule:evenodd;fill:#635BFF;}
</style></svg>
